<svg viewBox="-10.000000 -10.000000 20.000000 20.000000" xmlns="http://www.w3.org/2000/svg">
  <line x1="0.000000" y1="-10.000000" x2="-10.000000" y2="10.000000" stroke="blue" stroke-width="0.100000"/>  <line x1="10.000000" y1="10.000000" x2="0.000000" y2="-10.000000" stroke="blue" stroke-width="0.100000"/>  <line x1="10.000000" y1="10.000000" x2="-10.000000" y2="10.000000" stroke="blue" stroke-width="0.100000"/>  <line x1="0.000000" y1="-10.000000" x2="-10.000000" y2="10.000000" stroke="red" stroke-width="0.100000"/>  <line x1="10.000000" y1="10.000000" x2="0.000000" y2="-10.000000" stroke="red" stroke-width="0.100000"/>  <line x1="10.000000" y1="10.000000" x2="-10.000000" y2="10.000000" stroke="red" stroke-width="0.100000"/><polygon points="-0.750000,3.750000 -0.250000,3.750000 -0.250000,3.250000 -0.750000,3.250000 " fill="red" />
<text x="-0.500000" y="3.500000"  font-size="0.05em">0</text><polygon points="0.250000,3.750000 0.750000,3.750000 0.750000,3.250000 0.250000,3.250000 " fill="red" />
<text x="0.500000" y="3.500000"  font-size="0.05em">1</text><polygon points="-0.750000,2.750000 -0.250000,2.750000 -0.250000,2.250000 -0.750000,2.250000 " fill="red" />
<text x="-0.500000" y="2.500000"  font-size="0.05em">2</text><polygon points="0.250000,2.750000 0.750000,2.750000 0.750000,2.250000 0.250000,2.250000 " fill="red" />
<text x="0.500000" y="2.500000"  font-size="0.05em">3</text><polygon points="0.250000,4.750000 0.750000,4.750000 0.750000,4.250000 0.250000,4.250000 " fill="red" />
<text x="0.500000" y="4.500000"  font-size="0.05em">4</text><polygon points="-0.750000,4.750000 -0.250000,4.750000 -0.250000,4.250000 -0.750000,4.250000 " fill="red" />
<text x="-0.500000" y="4.500000"  font-size="0.05em">5</text><polygon points="1.250000,3.750000 1.750000,3.750000 1.750000,3.250000 1.250000,3.250000 " fill="red" />
<text x="1.500000" y="3.500000"  font-size="0.05em">6</text><polygon points="-1.750000,3.750000 -1.250000,3.750000 -1.250000,3.250000 -1.750000,3.250000 " fill="red" />
<text x="-1.500000" y="3.500000"  font-size="0.05em">7</text><polygon points="1.250000,2.750000 1.750000,2.750000 1.750000,2.250000 1.250000,2.250000 " fill="red" />
<text x="1.500000" y="2.500000"  font-size="0.05em">8</text><polygon points="-1.750000,2.750000 -1.250000,2.750000 -1.250000,2.250000 -1.750000,2.250000 " fill="red" />
<text x="-1.500000" y="2.500000"  font-size="0.05em">9</text><polygon points="-1.750000,4.750000 -1.250000,4.750000 -1.250000,4.250000 -1.750000,4.250000 " fill="red" />
<text x="-1.500000" y="4.500000"  font-size="0.05em">10</text><polygon points="1.250000,4.750000 1.750000,4.750000 1.750000,4.250000 1.250000,4.250000 " fill="red" />
<text x="1.500000" y="4.500000"  font-size="0.05em">11</text><polygon points="0.250000,1.750000 0.750000,1.750000 0.750000,1.250000 0.250000,1.250000 " fill="red" />
<text x="0.500000" y="1.500000"  font-size="0.05em">12</text><polygon points="-0.750000,1.750000 -0.250000,1.750000 -0.250000,1.250000 -0.750000,1.250000 " fill="red" />
<text x="-0.500000" y="1.500000"  font-size="0.05em">13</text><polygon points="-0.750000,5.750000 -0.250000,5.750000 -0.250000,5.250000 -0.750000,5.250000 " fill="red" />
<text x="-0.500000" y="5.500000"  font-size="0.05em">14</text><polygon points="0.250000,5.750000 0.750000,5.750000 0.750000,5.250000 0.250000,5.250000 " fill="red" />
<text x="0.500000" y="5.500000"  font-size="0.05em">15</text><polygon points="1.250000,1.750000 1.750000,1.750000 1.750000,1.250000 1.250000,1.250000 " fill="red" />
<text x="1.500000" y="1.500000"  font-size="0.05em">16</text><polygon points="-1.750000,1.750000 -1.250000,1.750000 -1.250000,1.250000 -1.750000,1.250000 " fill="red" />
<text x="-1.500000" y="1.500000"  font-size="0.05em">17</text><polygon points="-2.750000,3.750000 -2.250000,3.750000 -2.250000,3.250000 -2.750000,3.250000 " fill="red" />
<text x="-2.500000" y="3.500000"  font-size="0.05em">18</text><polygon points="2.250000,3.750000 2.750000,3.750000 2.750000,3.250000 2.250000,3.250000 " fill="red" />
<text x="2.500000" y="3.500000"  font-size="0.05em">19</text><polygon points="-1.750000,5.750000 -1.250000,5.750000 -1.250000,5.250000 -1.750000,5.250000 " fill="red" />
<text x="-1.500000" y="5.500000"  font-size="0.05em">20</text><polygon points="1.250000,5.750000 1.750000,5.750000 1.750000,5.250000 1.250000,5.250000 " fill="red" />
<text x="1.500000" y="5.500000"  font-size="0.05em">21</text><polygon points="-2.750000,2.750000 -2.250000,2.750000 -2.250000,2.250000 -2.750000,2.250000 " fill="red" />
<text x="-2.500000" y="2.500000"  font-size="0.05em">22</text><polygon points="2.250000,2.750000 2.750000,2.750000 2.750000,2.250000 2.250000,2.250000 " fill="red" />
<text x="2.500000" y="2.500000"  font-size="0.05em">23</text><polygon points="-2.750000,4.750000 -2.250000,4.750000 -2.250000,4.250000 -2.750000,4.250000 " fill="red" />
<text x="-2.500000" y="4.500000"  font-size="0.05em">24</text><polygon points="2.250000,4.750000 2.750000,4.750000 2.750000,4.250000 2.250000,4.250000 " fill="red" />
<text x="2.500000" y="4.500000"  font-size="0.05em">25</text><polygon points="0.250000,0.750000 0.750000,0.750000 0.750000,0.250000 0.250000,0.250000 " fill="red" />
<text x="0.500000" y="0.500000"  font-size="0.05em">26</text><polygon points="-0.750000,0.750000 -0.250000,0.750000 -0.250000,0.250000 -0.750000,0.250000 " fill="red" />
<text x="-0.500000" y="0.500000"  font-size="0.05em">27</text><polygon points="0.250000,6.750000 0.750000,6.750000 0.750000,6.250000 0.250000,6.250000 " fill="red" />
<text x="0.500000" y="6.500000"  font-size="0.05em">28</text><polygon points="-0.750000,6.750000 -0.250000,6.750000 -0.250000,6.250000 -0.750000,6.250000 " fill="red" />
<text x="-0.500000" y="6.500000"  font-size="0.05em">29</text><polygon points="2.250000,1.750000 2.750000,1.750000 2.750000,1.250000 2.250000,1.250000 " fill="red" />
<text x="2.500000" y="1.500000"  font-size="0.05em">30</text><polygon points="-2.750000,1.750000 -2.250000,1.750000 -2.250000,1.250000 -2.750000,1.250000 " fill="red" />
<text x="-2.500000" y="1.500000"  font-size="0.05em">31</text><polygon points="-2.750000,5.750000 -2.250000,5.750000 -2.250000,5.250000 -2.750000,5.250000 " fill="red" />
<text x="-2.500000" y="5.500000"  font-size="0.05em">32</text><polygon points="2.250000,5.750000 2.750000,5.750000 2.750000,5.250000 2.250000,5.250000 " fill="red" />
<text x="2.500000" y="5.500000"  font-size="0.05em">33</text><polygon points="1.250000,0.750000 1.750000,0.750000 1.750000,0.250000 1.250000,0.250000 " fill="red" />
<text x="1.500000" y="0.500000"  font-size="0.05em">34</text><polygon points="-1.750000,0.750000 -1.250000,0.750000 -1.250000,0.250000 -1.750000,0.250000 " fill="red" />
<text x="-1.500000" y="0.500000"  font-size="0.05em">35</text><polygon points="1.250000,6.750000 1.750000,6.750000 1.750000,6.250000 1.250000,6.250000 " fill="red" />
<text x="1.500000" y="6.500000"  font-size="0.05em">36</text><polygon points="-1.750000,6.750000 -1.250000,6.750000 -1.250000,6.250000 -1.750000,6.250000 " fill="red" />
<text x="-1.500000" y="6.500000"  font-size="0.05em">37</text><polygon points="-3.750000,3.750000 -3.250000,3.750000 -3.250000,3.250000 -3.750000,3.250000 " fill="red" />
<text x="-3.500000" y="3.500000"  font-size="0.05em">38</text><polygon points="3.250000,3.750000 3.750000,3.750000 3.750000,3.250000 3.250000,3.250000 " fill="red" />
<text x="3.500000" y="3.500000"  font-size="0.05em">39</text><polygon points="3.250000,2.750000 3.750000,2.750000 3.750000,2.250000 3.250000,2.250000 " fill="red" />
<text x="3.500000" y="2.500000"  font-size="0.05em">40</text><polygon points="-3.750000,2.750000 -3.250000,2.750000 -3.250000,2.250000 -3.750000,2.250000 " fill="red" />
<text x="-3.500000" y="2.500000"  font-size="0.05em">41</text><polygon points="3.250000,4.750000 3.750000,4.750000 3.750000,4.250000 3.250000,4.250000 " fill="red" />
<text x="3.500000" y="4.500000"  font-size="0.05em">42</text><polygon points="-3.750000,4.750000 -3.250000,4.750000 -3.250000,4.250000 -3.750000,4.250000 " fill="red" />
<text x="-3.500000" y="4.500000"  font-size="0.05em">43</text><polygon points="2.250000,0.750000 2.750000,0.750000 2.750000,0.250000 2.250000,0.250000 " fill="red" />
<text x="2.500000" y="0.500000"  font-size="0.05em">44</text><polygon points="-2.750000,0.750000 -2.250000,0.750000 -2.250000,0.250000 -2.750000,0.250000 " fill="red" />
<text x="-2.500000" y="0.500000"  font-size="0.05em">45</text><polygon points="-2.750000,6.750000 -2.250000,6.750000 -2.250000,6.250000 -2.750000,6.250000 " fill="red" />
<text x="-2.500000" y="6.500000"  font-size="0.05em">46</text><polygon points="2.250000,6.750000 2.750000,6.750000 2.750000,6.250000 2.250000,6.250000 " fill="red" />
<text x="2.500000" y="6.500000"  font-size="0.05em">47</text><polygon points="-0.750000,-0.250000 -0.250000,-0.250000 -0.250000,-0.750000 -0.750000,-0.750000 " fill="red" />
<text x="-0.500000" y="-0.500000"  font-size="0.05em">48</text><polygon points="0.250000,-0.250000 0.750000,-0.250000 0.750000,-0.750000 0.250000,-0.750000 " fill="red" />
<text x="0.500000" y="-0.500000"  font-size="0.05em">49</text><polygon points="3.250000,1.750000 3.750000,1.750000 3.750000,1.250000 3.250000,1.250000 " fill="red" />
<text x="3.500000" y="1.500000"  font-size="0.05em">50</text><polygon points="-3.750000,1.750000 -3.250000,1.750000 -3.250000,1.250000 -3.750000,1.250000 " fill="red" />
<text x="-3.500000" y="1.500000"  font-size="0.05em">51</text><polygon points="-3.750000,5.750000 -3.250000,5.750000 -3.250000,5.250000 -3.750000,5.250000 " fill="red" />
<text x="-3.500000" y="5.500000"  font-size="0.05em">52</text><polygon points="3.250000,5.750000 3.750000,5.750000 3.750000,5.250000 3.250000,5.250000 " fill="red" />
<text x="3.500000" y="5.500000"  font-size="0.05em">53</text><polygon points="-0.750000,7.750000 -0.250000,7.750000 -0.250000,7.250000 -0.750000,7.250000 " fill="red" />
<text x="-0.500000" y="7.500000"  font-size="0.05em">54</text><polygon points="0.250000,7.750000 0.750000,7.750000 0.750000,7.250000 0.250000,7.250000 " fill="red" />
<text x="0.500000" y="7.500000"  font-size="0.05em">55</text><polygon points="1.250000,-0.250000 1.750000,-0.250000 1.750000,-0.750000 1.250000,-0.750000 " fill="red" />
<text x="1.500000" y="-0.500000"  font-size="0.05em">56</text><polygon points="-1.750000,-0.250000 -1.250000,-0.250000 -1.250000,-0.750000 -1.750000,-0.750000 " fill="red" />
<text x="-1.500000" y="-0.500000"  font-size="0.05em">57</text><polygon points="-1.750000,7.750000 -1.250000,7.750000 -1.250000,7.250000 -1.750000,7.250000 " fill="red" />
<text x="-1.500000" y="7.500000"  font-size="0.05em">58</text><polygon points="1.250000,7.750000 1.750000,7.750000 1.750000,7.250000 1.250000,7.250000 " fill="red" />
<text x="1.500000" y="7.500000"  font-size="0.05em">59</text><polygon points="4.250000,3.750000 4.750000,3.750000 4.750000,3.250000 4.250000,3.250000 " fill="red" />
<text x="4.500000" y="3.500000"  font-size="0.05em">60</text><polygon points="-4.750000,3.750000 -4.250000,3.750000 -4.250000,3.250000 -4.750000,3.250000 " fill="red" />
<text x="-4.500000" y="3.500000"  font-size="0.05em">61</text><polygon points="3.250000,0.750000 3.750000,0.750000 3.750000,0.250000 3.250000,0.250000 " fill="red" />
<text x="3.500000" y="0.500000"  font-size="0.05em">62</text><polygon points="-3.750000,0.750000 -3.250000,0.750000 -3.250000,0.250000 -3.750000,0.250000 " fill="red" />
<text x="-3.500000" y="0.500000"  font-size="0.05em">63</text><polygon points="-4.750000,2.750000 -4.250000,2.750000 -4.250000,2.250000 -4.750000,2.250000 " fill="red" />
<text x="-4.500000" y="2.500000"  font-size="0.05em">64</text><polygon points="4.250000,2.750000 4.750000,2.750000 4.750000,2.250000 4.250000,2.250000 " fill="red" />
<text x="4.500000" y="2.500000"  font-size="0.05em">65</text><polygon points="4.250000,4.750000 4.750000,4.750000 4.750000,4.250000 4.250000,4.250000 " fill="red" />
<text x="4.500000" y="4.500000"  font-size="0.05em">66</text><polygon points="-4.750000,4.750000 -4.250000,4.750000 -4.250000,4.250000 -4.750000,4.250000 " fill="red" />
<text x="-4.500000" y="4.500000"  font-size="0.05em">67</text><polygon points="3.250000,6.750000 3.750000,6.750000 3.750000,6.250000 3.250000,6.250000 " fill="red" />
<text x="3.500000" y="6.500000"  font-size="0.05em">68</text><polygon points="-3.750000,6.750000 -3.250000,6.750000 -3.250000,6.250000 -3.750000,6.250000 " fill="red" />
<text x="-3.500000" y="6.500000"  font-size="0.05em">69</text><polygon points="2.250000,-0.250000 2.750000,-0.250000 2.750000,-0.750000 2.250000,-0.750000 " fill="red" />
<text x="2.500000" y="-0.500000"  font-size="0.05em">70</text><polygon points="-2.750000,-0.250000 -2.250000,-0.250000 -2.250000,-0.750000 -2.750000,-0.750000 " fill="red" />
<text x="-2.500000" y="-0.500000"  font-size="0.05em">71</text><polygon points="2.250000,7.750000 2.750000,7.750000 2.750000,7.250000 2.250000,7.250000 " fill="red" />
<text x="2.500000" y="7.500000"  font-size="0.05em">72</text><polygon points="-2.750000,7.750000 -2.250000,7.750000 -2.250000,7.250000 -2.750000,7.250000 " fill="red" />
<text x="-2.500000" y="7.500000"  font-size="0.05em">73</text><polygon points="4.250000,1.750000 4.750000,1.750000 4.750000,1.250000 4.250000,1.250000 " fill="red" />
<text x="4.500000" y="1.500000"  font-size="0.05em">74</text><polygon points="-4.750000,1.750000 -4.250000,1.750000 -4.250000,1.250000 -4.750000,1.250000 " fill="red" />
<text x="-4.500000" y="1.500000"  font-size="0.05em">75</text><polygon points="4.250000,5.750000 4.750000,5.750000 4.750000,5.250000 4.250000,5.250000 " fill="red" />
<text x="4.500000" y="5.500000"  font-size="0.05em">76</text><polygon points="-4.750000,5.750000 -4.250000,5.750000 -4.250000,5.250000 -4.750000,5.250000 " fill="red" />
<text x="-4.500000" y="5.500000"  font-size="0.05em">77</text><polygon points="0.250000,-1.250000 0.750000,-1.250000 0.750000,-1.750000 0.250000,-1.750000 " fill="red" />
<text x="0.500000" y="-1.500000"  font-size="0.05em">78</text><polygon points="-0.750000,-1.250000 -0.250000,-1.250000 -0.250000,-1.750000 -0.750000,-1.750000 " fill="red" />
<text x="-0.500000" y="-1.500000"  font-size="0.05em">79</text><polygon points="-0.750000,8.750000 -0.250000,8.750000 -0.250000,8.250000 -0.750000,8.250000 " fill="red" />
<text x="-0.500000" y="8.500000"  font-size="0.05em">80</text><polygon points="0.250000,8.750000 0.750000,8.750000 0.750000,8.250000 0.250000,8.250000 " fill="red" />
<text x="0.500000" y="8.500000"  font-size="0.05em">81</text><polygon points="-1.750000,-1.250000 -1.250000,-1.250000 -1.250000,-1.750000 -1.750000,-1.750000 " fill="red" />
<text x="-1.500000" y="-1.500000"  font-size="0.05em">82</text><polygon points="1.250000,-1.250000 1.750000,-1.250000 1.750000,-1.750000 1.250000,-1.750000 " fill="red" />
<text x="1.500000" y="-1.500000"  font-size="0.05em">83</text><polygon points="-1.750000,8.750000 -1.250000,8.750000 -1.250000,8.250000 -1.750000,8.250000 " fill="red" />
<text x="-1.500000" y="8.500000"  font-size="0.05em">84</text><polygon points="1.250000,8.750000 1.750000,8.750000 1.750000,8.250000 1.250000,8.250000 " fill="red" />
<text x="1.500000" y="8.500000"  font-size="0.05em">85</text><polygon points="-3.750000,-0.250000 -3.250000,-0.250000 -3.250000,-0.750000 -3.750000,-0.750000 " fill="red" />
<text x="-3.500000" y="-0.500000"  font-size="0.05em">86</text><polygon points="3.250000,-0.250000 3.750000,-0.250000 3.750000,-0.750000 3.250000,-0.750000 " fill="red" />
<text x="3.500000" y="-0.500000"  font-size="0.05em">87</text><polygon points="3.250000,7.750000 3.750000,7.750000 3.750000,7.250000 3.250000,7.250000 " fill="red" />
<text x="3.500000" y="7.500000"  font-size="0.05em">88</text><polygon points="-3.750000,7.750000 -3.250000,7.750000 -3.250000,7.250000 -3.750000,7.250000 " fill="red" />
<text x="-3.500000" y="7.500000"  font-size="0.05em">89</text><polygon points="4.250000,0.750000 4.750000,0.750000 4.750000,0.250000 4.250000,0.250000 " fill="red" />
<text x="4.500000" y="0.500000"  font-size="0.05em">90</text><polygon points="-4.750000,0.750000 -4.250000,0.750000 -4.250000,0.250000 -4.750000,0.250000 " fill="red" />
<text x="-4.500000" y="0.500000"  font-size="0.05em">91</text><polygon points="-4.750000,6.750000 -4.250000,6.750000 -4.250000,6.250000 -4.750000,6.250000 " fill="red" />
<text x="-4.500000" y="6.500000"  font-size="0.05em">92</text><polygon points="4.250000,6.750000 4.750000,6.750000 4.750000,6.250000 4.250000,6.250000 " fill="red" />
<text x="4.500000" y="6.500000"  font-size="0.05em">93</text><polygon points="5.250000,3.750000 5.750000,3.750000 5.750000,3.250000 5.250000,3.250000 " fill="red" />
<text x="5.500000" y="3.500000"  font-size="0.05em">94</text><polygon points="-5.750000,3.750000 -5.250000,3.750000 -5.250000,3.250000 -5.750000,3.250000 " fill="red" />
<text x="-5.500000" y="3.500000"  font-size="0.05em">95</text><polygon points="-2.750000,-1.250000 -2.250000,-1.250000 -2.250000,-1.750000 -2.750000,-1.750000 " fill="red" />
<text x="-2.500000" y="-1.500000"  font-size="0.05em">96</text><polygon points="2.250000,-1.250000 2.750000,-1.250000 2.750000,-1.750000 2.250000,-1.750000 " fill="red" />
<text x="2.500000" y="-1.500000"  font-size="0.05em">97</text><polygon points="-5.750000,2.750000 -5.250000,2.750000 -5.250000,2.250000 -5.750000,2.250000 " fill="red" />
<text x="-5.500000" y="2.500000"  font-size="0.05em">98</text><polygon points="5.250000,2.750000 5.750000,2.750000 5.750000,2.250000 5.250000,2.250000 " fill="red" />
<text x="5.500000" y="2.500000"  font-size="0.05em">99</text><polygon points="-5.750000,4.750000 -5.250000,4.750000 -5.250000,4.250000 -5.750000,4.250000 " fill="red" />
<text x="-5.500000" y="4.500000"  font-size="0.05em">100</text><polygon points="5.250000,4.750000 5.750000,4.750000 5.750000,4.250000 5.250000,4.250000 " fill="red" />
<text x="5.500000" y="4.500000"  font-size="0.05em">101</text><polygon points="-2.750000,8.750000 -2.250000,8.750000 -2.250000,8.250000 -2.750000,8.250000 " fill="red" />
<text x="-2.500000" y="8.500000"  font-size="0.05em">102</text><polygon points="2.250000,8.750000 2.750000,8.750000 2.750000,8.250000 2.250000,8.250000 " fill="red" />
<text x="2.500000" y="8.500000"  font-size="0.05em">103</text><polygon points="-5.750000,1.750000 -5.250000,1.750000 -5.250000,1.250000 -5.750000,1.250000 " fill="red" />
<text x="-5.500000" y="1.500000"  font-size="0.05em">104</text><polygon points="5.250000,1.750000 5.750000,1.750000 5.750000,1.250000 5.250000,1.250000 " fill="red" />
<text x="5.500000" y="1.500000"  font-size="0.05em">105</text><polygon points="-5.750000,5.750000 -5.250000,5.750000 -5.250000,5.250000 -5.750000,5.250000 " fill="red" />
<text x="-5.500000" y="5.500000"  font-size="0.05em">106</text><polygon points="5.250000,5.750000 5.750000,5.750000 5.750000,5.250000 5.250000,5.250000 " fill="red" />
<text x="5.500000" y="5.500000"  font-size="0.05em">107</text><polygon points="0.250000,-2.250000 0.750000,-2.250000 0.750000,-2.750000 0.250000,-2.750000 " fill="red" />
<text x="0.500000" y="-2.500000"  font-size="0.05em">108</text><polygon points="-0.750000,-2.250000 -0.250000,-2.250000 -0.250000,-2.750000 -0.750000,-2.750000 " fill="red" />
<text x="-0.500000" y="-2.500000"  font-size="0.05em">109</text><polygon points="-4.750000,-0.250000 -4.250000,-0.250000 -4.250000,-0.750000 -4.750000,-0.750000 " fill="red" />
<text x="-4.500000" y="-0.500000"  font-size="0.05em">110</text><polygon points="4.250000,-0.250000 4.750000,-0.250000 4.750000,-0.750000 4.250000,-0.750000 " fill="red" />
<text x="4.500000" y="-0.500000"  font-size="0.05em">111</text><polygon points="4.250000,7.750000 4.750000,7.750000 4.750000,7.250000 4.250000,7.250000 " fill="red" />
<text x="4.500000" y="7.500000"  font-size="0.05em">112</text><polygon points="-4.750000,7.750000 -4.250000,7.750000 -4.250000,7.250000 -4.750000,7.250000 " fill="red" />
<text x="-4.500000" y="7.500000"  font-size="0.05em">113</text><polygon points="0.250000,9.750000 0.750000,9.750000 0.750000,9.250000 0.250000,9.250000 " fill="red" />
<text x="0.500000" y="9.500000"  font-size="0.05em">114</text><polygon points="-0.750000,9.750000 -0.250000,9.750000 -0.250000,9.250000 -0.750000,9.250000 " fill="red" />
<text x="-0.500000" y="9.500000"  font-size="0.05em">115</text><polygon points="-3.750000,-1.250000 -3.250000,-1.250000 -3.250000,-1.750000 -3.750000,-1.750000 " fill="red" />
<text x="-3.500000" y="-1.500000"  font-size="0.05em">116</text><polygon points="3.250000,-1.250000 3.750000,-1.250000 3.750000,-1.750000 3.250000,-1.750000 " fill="red" />
<text x="3.500000" y="-1.500000"  font-size="0.05em">117</text><polygon points="-3.750000,8.750000 -3.250000,8.750000 -3.250000,8.250000 -3.750000,8.250000 " fill="red" />
<text x="-3.500000" y="8.500000"  font-size="0.05em">118</text><polygon points="3.250000,8.750000 3.750000,8.750000 3.750000,8.250000 3.250000,8.250000 " fill="red" />
<text x="3.500000" y="8.500000"  font-size="0.05em">119</text><polygon points="1.250000,-2.250000 1.750000,-2.250000 1.750000,-2.750000 1.250000,-2.750000 " fill="red" />
<text x="1.500000" y="-2.500000"  font-size="0.05em">120</text><polygon points="-1.750000,-2.250000 -1.250000,-2.250000 -1.250000,-2.750000 -1.750000,-2.750000 " fill="red" />
<text x="-1.500000" y="-2.500000"  font-size="0.05em">121</text><polygon points="1.250000,9.750000 1.750000,9.750000 1.750000,9.250000 1.250000,9.250000 " fill="red" />
<text x="1.500000" y="9.500000"  font-size="0.05em">122</text><polygon points="-1.750000,9.750000 -1.250000,9.750000 -1.250000,9.250000 -1.750000,9.250000 " fill="red" />
<text x="-1.500000" y="9.500000"  font-size="0.05em">123</text><polygon points="-5.750000,6.750000 -5.250000,6.750000 -5.250000,6.250000 -5.750000,6.250000 " fill="red" />
<text x="-5.500000" y="6.500000"  font-size="0.05em">124</text><polygon points="5.250000,6.750000 5.750000,6.750000 5.750000,6.250000 5.250000,6.250000 " fill="red" />
<text x="5.500000" y="6.500000"  font-size="0.05em">125</text><polygon points="2.250000,-2.250000 2.750000,-2.250000 2.750000,-2.750000 2.250000,-2.750000 " fill="red" />
<text x="2.500000" y="-2.500000"  font-size="0.05em">126</text><polygon points="-2.750000,-2.250000 -2.250000,-2.250000 -2.250000,-2.750000 -2.750000,-2.750000 " fill="red" />
<text x="-2.500000" y="-2.500000"  font-size="0.05em">127</text><polygon points="-6.750000,3.750000 -6.250000,3.750000 -6.250000,3.250000 -6.750000,3.250000 " fill="red" />
<text x="-6.500000" y="3.500000"  font-size="0.05em">128</text><polygon points="6.250000,3.750000 6.750000,3.750000 6.750000,3.250000 6.250000,3.250000 " fill="red" />
<text x="6.500000" y="3.500000"  font-size="0.05em">129</text><polygon points="-2.750000,9.750000 -2.250000,9.750000 -2.250000,9.250000 -2.750000,9.250000 " fill="red" />
<text x="-2.500000" y="9.500000"  font-size="0.05em">130</text><polygon points="2.250000,9.750000 2.750000,9.750000 2.750000,9.250000 2.250000,9.250000 " fill="red" />
<text x="2.500000" y="9.500000"  font-size="0.05em">131</text><polygon points="6.250000,4.750000 6.750000,4.750000 6.750000,4.250000 6.250000,4.250000 " fill="red" />
<text x="6.500000" y="4.500000"  font-size="0.05em">132</text><polygon points="-6.750000,4.750000 -6.250000,4.750000 -6.250000,4.250000 -6.750000,4.250000 " fill="red" />
<text x="-6.500000" y="4.500000"  font-size="0.05em">133</text><polygon points="4.250000,8.750000 4.750000,8.750000 4.750000,8.250000 4.250000,8.250000 " fill="red" />
<text x="4.500000" y="8.500000"  font-size="0.05em">134</text><polygon points="-4.750000,8.750000 -4.250000,8.750000 -4.250000,8.250000 -4.750000,8.250000 " fill="red" />
<text x="-4.500000" y="8.500000"  font-size="0.05em">135</text><polygon points="6.250000,5.750000 6.750000,5.750000 6.750000,5.250000 6.250000,5.250000 " fill="red" />
<text x="6.500000" y="5.500000"  font-size="0.05em">136</text><polygon points="-6.750000,5.750000 -6.250000,5.750000 -6.250000,5.250000 -6.750000,5.250000 " fill="red" />
<text x="-6.500000" y="5.500000"  font-size="0.05em">137</text><polygon points="5.250000,7.750000 5.750000,7.750000 5.750000,7.250000 5.250000,7.250000 " fill="red" />
<text x="5.500000" y="7.500000"  font-size="0.05em">138</text><polygon points="-5.750000,7.750000 -5.250000,7.750000 -5.250000,7.250000 -5.750000,7.250000 " fill="red" />
<text x="-5.500000" y="7.500000"  font-size="0.05em">139</text><polygon points="-3.750000,-2.250000 -3.250000,-2.250000 -3.250000,-2.750000 -3.750000,-2.750000 " fill="red" />
<text x="-3.500000" y="-2.500000"  font-size="0.05em">140</text><polygon points="3.250000,-2.250000 3.750000,-2.250000 3.750000,-2.750000 3.250000,-2.750000 " fill="red" />
<text x="3.500000" y="-2.500000"  font-size="0.05em">141</text><polygon points="3.250000,9.750000 3.750000,9.750000 3.750000,9.250000 3.250000,9.250000 " fill="red" />
<text x="3.500000" y="9.500000"  font-size="0.05em">142</text><polygon points="-3.750000,9.750000 -3.250000,9.750000 -3.250000,9.250000 -3.750000,9.250000 " fill="red" />
<text x="-3.500000" y="9.500000"  font-size="0.05em">143</text><polygon points="-0.750000,-3.250000 -0.250000,-3.250000 -0.250000,-3.750000 -0.750000,-3.750000 " fill="red" />
<text x="-0.500000" y="-3.500000"  font-size="0.05em">144</text><polygon points="0.250000,-3.250000 0.750000,-3.250000 0.750000,-3.750000 0.250000,-3.750000 " fill="red" />
<text x="0.500000" y="-3.500000"  font-size="0.05em">145</text><polygon points="-1.750000,-3.250000 -1.250000,-3.250000 -1.250000,-3.750000 -1.750000,-3.750000 " fill="red" />
<text x="-1.500000" y="-3.500000"  font-size="0.05em">146</text><polygon points="1.250000,-3.250000 1.750000,-3.250000 1.750000,-3.750000 1.250000,-3.750000 " fill="red" />
<text x="1.500000" y="-3.500000"  font-size="0.05em">147</text><polygon points="-6.750000,6.750000 -6.250000,6.750000 -6.250000,6.250000 -6.750000,6.250000 " fill="red" />
<text x="-6.500000" y="6.500000"  font-size="0.05em">148</text><polygon points="6.250000,6.750000 6.750000,6.750000 6.750000,6.250000 6.250000,6.250000 " fill="red" />
<text x="6.500000" y="6.500000"  font-size="0.05em">149</text><polygon points="-2.750000,-3.250000 -2.250000,-3.250000 -2.250000,-3.750000 -2.750000,-3.750000 " fill="red" />
<text x="-2.500000" y="-3.500000"  font-size="0.05em">150</text><polygon points="2.250000,-3.250000 2.750000,-3.250000 2.750000,-3.750000 2.250000,-3.750000 " fill="red" />
<text x="2.500000" y="-3.500000"  font-size="0.05em">151</text><polygon points="5.250000,8.750000 5.750000,8.750000 5.750000,8.250000 5.250000,8.250000 " fill="red" />
<text x="5.500000" y="8.500000"  font-size="0.05em">152</text><polygon points="-5.750000,8.750000 -5.250000,8.750000 -5.250000,8.250000 -5.750000,8.250000 " fill="red" />
<text x="-5.500000" y="8.500000"  font-size="0.05em">153</text><polygon points="-4.750000,9.750000 -4.250000,9.750000 -4.250000,9.250000 -4.750000,9.250000 " fill="red" />
<text x="-4.500000" y="9.500000"  font-size="0.05em">154</text><polygon points="4.250000,9.750000 4.750000,9.750000 4.750000,9.250000 4.250000,9.250000 " fill="red" />
<text x="4.500000" y="9.500000"  font-size="0.05em">155</text><polygon points="6.250000,7.750000 6.750000,7.750000 6.750000,7.250000 6.250000,7.250000 " fill="red" />
<text x="6.500000" y="7.500000"  font-size="0.05em">156</text><polygon points="-6.750000,7.750000 -6.250000,7.750000 -6.250000,7.250000 -6.750000,7.250000 " fill="red" />
<text x="-6.500000" y="7.500000"  font-size="0.05em">157</text><polygon points="-7.750000,5.750000 -7.250000,5.750000 -7.250000,5.250000 -7.750000,5.250000 " fill="red" />
<text x="-7.500000" y="5.500000"  font-size="0.05em">158</text><polygon points="7.250000,5.750000 7.750000,5.750000 7.750000,5.250000 7.250000,5.250000 " fill="red" />
<text x="7.500000" y="5.500000"  font-size="0.05em">159</text><polygon points="-0.750000,-4.250000 -0.250000,-4.250000 -0.250000,-4.750000 -0.750000,-4.750000 " fill="red" />
<text x="-0.500000" y="-4.500000"  font-size="0.05em">160</text><polygon points="0.250000,-4.250000 0.750000,-4.250000 0.750000,-4.750000 0.250000,-4.750000 " fill="red" />
<text x="0.500000" y="-4.500000"  font-size="0.05em">161</text><polygon points="7.250000,6.750000 7.750000,6.750000 7.750000,6.250000 7.250000,6.250000 " fill="red" />
<text x="7.500000" y="6.500000"  font-size="0.05em">162</text><polygon points="-7.750000,6.750000 -7.250000,6.750000 -7.250000,6.250000 -7.750000,6.250000 " fill="red" />
<text x="-7.500000" y="6.500000"  font-size="0.05em">163</text><polygon points="-1.750000,-4.250000 -1.250000,-4.250000 -1.250000,-4.750000 -1.750000,-4.750000 " fill="red" />
<text x="-1.500000" y="-4.500000"  font-size="0.05em">164</text><polygon points="1.250000,-4.250000 1.750000,-4.250000 1.750000,-4.750000 1.250000,-4.750000 " fill="red" />
<text x="1.500000" y="-4.500000"  font-size="0.05em">165</text><polygon points="-5.750000,9.750000 -5.250000,9.750000 -5.250000,9.250000 -5.750000,9.250000 " fill="red" />
<text x="-5.500000" y="9.500000"  font-size="0.05em">166</text><polygon points="5.250000,9.750000 5.750000,9.750000 5.750000,9.250000 5.250000,9.250000 " fill="red" />
<text x="5.500000" y="9.500000"  font-size="0.05em">167</text><polygon points="-6.750000,8.750000 -6.250000,8.750000 -6.250000,8.250000 -6.750000,8.250000 " fill="red" />
<text x="-6.500000" y="8.500000"  font-size="0.05em">168</text><polygon points="6.250000,8.750000 6.750000,8.750000 6.750000,8.250000 6.250000,8.250000 " fill="red" />
<text x="6.500000" y="8.500000"  font-size="0.05em">169</text><polygon points="-2.750000,-4.250000 -2.250000,-4.250000 -2.250000,-4.750000 -2.750000,-4.750000 " fill="red" />
<text x="-2.500000" y="-4.500000"  font-size="0.05em">170</text><polygon points="2.250000,-4.250000 2.750000,-4.250000 2.750000,-4.750000 2.250000,-4.750000 " fill="red" />
<text x="2.500000" y="-4.500000"  font-size="0.05em">171</text><polygon points="-7.750000,7.750000 -7.250000,7.750000 -7.250000,7.250000 -7.750000,7.250000 " fill="red" />
<text x="-7.500000" y="7.500000"  font-size="0.05em">172</text><polygon points="7.250000,7.750000 7.750000,7.750000 7.750000,7.250000 7.250000,7.250000 " fill="red" />
<text x="7.500000" y="7.500000"  font-size="0.05em">173</text><polygon points="-6.750000,9.750000 -6.250000,9.750000 -6.250000,9.250000 -6.750000,9.250000 " fill="red" />
<text x="-6.500000" y="9.500000"  font-size="0.05em">174</text><polygon points="6.250000,9.750000 6.750000,9.750000 6.750000,9.250000 6.250000,9.250000 " fill="red" />
<text x="6.500000" y="9.500000"  font-size="0.05em">175</text><polygon points="-0.750000,-5.250000 -0.250000,-5.250000 -0.250000,-5.750000 -0.750000,-5.750000 " fill="red" />
<text x="-0.500000" y="-5.500000"  font-size="0.05em">176</text><polygon points="0.250000,-5.250000 0.750000,-5.250000 0.750000,-5.750000 0.250000,-5.750000 " fill="red" />
<text x="0.500000" y="-5.500000"  font-size="0.05em">177</text><polygon points="-7.750000,8.750000 -7.250000,8.750000 -7.250000,8.250000 -7.750000,8.250000 " fill="red" />
<text x="-7.500000" y="8.500000"  font-size="0.05em">178</text><polygon points="7.250000,8.750000 7.750000,8.750000 7.750000,8.250000 7.250000,8.250000 " fill="red" />
<text x="7.500000" y="8.500000"  font-size="0.05em">179</text>  <line x1="-7.000000" y1="7.000000" x2="-7.000000" y2="5.000000" stroke="black"   stroke-width="0.1"/>  <line x1="-7.000000" y1="5.000000" x2="-8.000000" y2="6.000000" stroke="black"   stroke-width="0.1"/>  <line x1="-7.000000" y1="5.000000" x2="-6.000000" y2="6.000000" stroke="black"   stroke-width="0.1"/>
</svg>