<svg viewBox="-6.500000 -6.500000 6.500000 6.500000" xmlns="http://www.w3.org/2000/svg">
<polygon points="0.250000,-5.750000 0.750000,-5.750000 0.750000,-6.250000 0.250000,-6.250000 " fill="red" />
<polygon points="-0.750000,-5.750000 -0.250000,-5.750000 -0.250000,-6.250000 -0.750000,-6.250000 " fill="red" />
<polygon points="-0.750000,-6.750000 -0.250000,-6.750000 -0.250000,-7.250000 -0.750000,-7.250000 " fill="red" />
<polygon points="0.250000,-6.750000 0.750000,-6.750000 0.750000,-7.250000 0.250000,-7.250000 " fill="red" />
<polygon points="-1.750000,-5.750000 -1.250000,-5.750000 -1.250000,-6.250000 -1.750000,-6.250000 " fill="red" />
<polygon points="1.250000,-5.750000 1.750000,-5.750000 1.750000,-6.250000 1.250000,-6.250000 " fill="red" />
<polygon points="0.250000,-7.750000 0.750000,-7.750000 0.750000,-8.250000 0.250000,-8.250000 " fill="red" />
<polygon points="1.250000,-6.750000 1.750000,-6.750000 1.750000,-7.250000 1.250000,-7.250000 " fill="red" />
<polygon points="-0.750000,-4.750000 -0.250000,-4.750000 -0.250000,-5.250000 -0.750000,-5.250000 " fill="red" />
<polygon points="-1.750000,-6.750000 -1.250000,-6.750000 -1.250000,-7.250000 -1.750000,-7.250000 " fill="red" />
<polygon points="0.250000,-4.750000 0.750000,-4.750000 0.750000,-5.250000 0.250000,-5.250000 " fill="red" />
<polygon points="-0.750000,-7.750000 -0.250000,-7.750000 -0.250000,-8.250000 -0.750000,-8.250000 " fill="red" />
<polygon points="1.250000,-4.750000 1.750000,-4.750000 1.750000,-5.250000 1.250000,-5.250000 " fill="red" />
<polygon points="-1.750000,-4.750000 -1.250000,-4.750000 -1.250000,-5.250000 -1.750000,-5.250000 " fill="red" />
<polygon points="1.250000,-7.750000 1.750000,-7.750000 1.750000,-8.250000 1.250000,-8.250000 " fill="red" />
<polygon points="-1.750000,-7.750000 -1.250000,-7.750000 -1.250000,-8.250000 -1.750000,-8.250000 " fill="red" />
<polygon points="-2.750000,-5.750000 -2.250000,-5.750000 -2.250000,-6.250000 -2.750000,-6.250000 " fill="red" />
<polygon points="0.250000,-8.750000 0.750000,-8.750000 0.750000,-9.250000 0.250000,-9.250000 " fill="red" />
<polygon points="2.250000,-6.750000 2.750000,-6.750000 2.750000,-7.250000 2.250000,-7.250000 " fill="red" />
<polygon points="-2.750000,-6.750000 -2.250000,-6.750000 -2.250000,-7.250000 -2.750000,-7.250000 " fill="red" />
<polygon points="-0.750000,-8.750000 -0.250000,-8.750000 -0.250000,-9.250000 -0.750000,-9.250000 " fill="red" />
<polygon points="2.250000,-5.750000 2.750000,-5.750000 2.750000,-6.250000 2.250000,-6.250000 " fill="red" />
<polygon points="-0.750000,-3.750000 -0.250000,-3.750000 -0.250000,-4.250000 -0.750000,-4.250000 " fill="red" />
<polygon points="0.250000,-3.750000 0.750000,-3.750000 0.750000,-4.250000 0.250000,-4.250000 " fill="red" />
<polygon points="-2.750000,-4.750000 -2.250000,-4.750000 -2.250000,-5.250000 -2.750000,-5.250000 " fill="red" />
<polygon points="2.250000,-4.750000 2.750000,-4.750000 2.750000,-5.250000 2.250000,-5.250000 " fill="red" />
<polygon points="1.250000,-8.750000 1.750000,-8.750000 1.750000,-9.250000 1.250000,-9.250000 " fill="red" />
<polygon points="-1.750000,-8.750000 -1.250000,-8.750000 -1.250000,-9.250000 -1.750000,-9.250000 " fill="red" />
<polygon points="2.250000,-7.750000 2.750000,-7.750000 2.750000,-8.250000 2.250000,-8.250000 " fill="red" />
<polygon points="-2.750000,-7.750000 -2.250000,-7.750000 -2.250000,-8.250000 -2.750000,-8.250000 " fill="red" />
<polygon points="-1.750000,-3.750000 -1.250000,-3.750000 -1.250000,-4.250000 -1.750000,-4.250000 " fill="red" />
<polygon points="1.250000,-3.750000 1.750000,-3.750000 1.750000,-4.250000 1.250000,-4.250000 " fill="red" />
<polygon points="3.250000,-5.750000 3.750000,-5.750000 3.750000,-6.250000 3.250000,-6.250000 " fill="red" />
<polygon points="-3.750000,-5.750000 -3.250000,-5.750000 -3.250000,-6.250000 -3.750000,-6.250000 " fill="red" />
<polygon points="3.250000,-6.750000 3.750000,-6.750000 3.750000,-7.250000 3.250000,-7.250000 " fill="red" />
<polygon points="-3.750000,-6.750000 -3.250000,-6.750000 -3.250000,-7.250000 -3.750000,-7.250000 " fill="red" />
<polygon points="0.250000,-9.750000 0.750000,-9.750000 0.750000,-10.250000 0.250000,-10.250000 " fill="red" />
<polygon points="-2.750000,-8.750000 -2.250000,-8.750000 -2.250000,-9.250000 -2.750000,-9.250000 " fill="red" />
<polygon points="-0.750000,-9.750000 -0.250000,-9.750000 -0.250000,-10.250000 -0.750000,-10.250000 " fill="red" />
<polygon points="-2.750000,-3.750000 -2.250000,-3.750000 -2.250000,-4.250000 -2.750000,-4.250000 " fill="red" />
<polygon points="2.250000,-8.750000 2.750000,-8.750000 2.750000,-9.250000 2.250000,-9.250000 " fill="red" />
<polygon points="-0.750000,-2.750000 -0.250000,-2.750000 -0.250000,-3.250000 -0.750000,-3.250000 " fill="red" />
<polygon points="0.250000,-2.750000 0.750000,-2.750000 0.750000,-3.250000 0.250000,-3.250000 " fill="red" />
<polygon points="2.250000,-3.750000 2.750000,-3.750000 2.750000,-4.250000 2.250000,-4.250000 " fill="red" />
<polygon points="-1.750000,-2.750000 -1.250000,-2.750000 -1.250000,-3.250000 -1.750000,-3.250000 " fill="red" />
<polygon points="3.250000,-7.750000 3.750000,-7.750000 3.750000,-8.250000 3.250000,-8.250000 " fill="red" />
<polygon points="-1.750000,-9.750000 -1.250000,-9.750000 -1.250000,-10.250000 -1.750000,-10.250000 " fill="red" />
<polygon points="1.250000,-2.750000 1.750000,-2.750000 1.750000,-3.250000 1.250000,-3.250000 " fill="red" />
<polygon points="-3.750000,-4.750000 -3.250000,-4.750000 -3.250000,-5.250000 -3.750000,-5.250000 " fill="red" />
<polygon points="1.250000,-9.750000 1.750000,-9.750000 1.750000,-10.250000 1.250000,-10.250000 " fill="red" />
<polygon points="3.250000,-4.750000 3.750000,-4.750000 3.750000,-5.250000 3.250000,-5.250000 " fill="red" />
<polygon points="-3.750000,-7.750000 -3.250000,-7.750000 -3.250000,-8.250000 -3.750000,-8.250000 " fill="red" />
<polygon points="3.250000,-3.750000 3.750000,-3.750000 3.750000,-4.250000 3.250000,-4.250000 " fill="red" />
<polygon points="-3.750000,-8.750000 -3.250000,-8.750000 -3.250000,-9.250000 -3.750000,-9.250000 " fill="red" />
<polygon points="-3.750000,-3.750000 -3.250000,-3.750000 -3.250000,-4.250000 -3.750000,-4.250000 " fill="red" />
<polygon points="2.250000,-9.750000 2.750000,-9.750000 2.750000,-10.250000 2.250000,-10.250000 " fill="red" />
<polygon points="-2.750000,-9.750000 -2.250000,-9.750000 -2.250000,-10.250000 -2.750000,-10.250000 " fill="red" />
<polygon points="2.250000,-2.750000 2.750000,-2.750000 2.750000,-3.250000 2.250000,-3.250000 " fill="red" />
<polygon points="3.250000,-8.750000 3.750000,-8.750000 3.750000,-9.250000 3.250000,-9.250000 " fill="red" />
<polygon points="-2.750000,-2.750000 -2.250000,-2.750000 -2.250000,-3.250000 -2.750000,-3.250000 " fill="red" />
<polygon points="0.250000,-1.750000 0.750000,-1.750000 0.750000,-2.250000 0.250000,-2.250000 " fill="red" />
<polygon points="0.250000,-10.750000 0.750000,-10.750000 0.750000,-11.250000 0.250000,-11.250000 " fill="red" />
<polygon points="-4.750000,-6.750000 -4.250000,-6.750000 -4.250000,-7.250000 -4.750000,-7.250000 " fill="red" />
<polygon points="4.250000,-6.750000 4.750000,-6.750000 4.750000,-7.250000 4.250000,-7.250000 " fill="red" />
<polygon points="-0.750000,-10.750000 -0.250000,-10.750000 -0.250000,-11.250000 -0.750000,-11.250000 " fill="red" />
<polygon points="4.250000,-5.750000 4.750000,-5.750000 4.750000,-6.250000 4.250000,-6.250000 " fill="red" />
<polygon points="-0.750000,-1.750000 -0.250000,-1.750000 -0.250000,-2.250000 -0.750000,-2.250000 " fill="red" />
<polygon points="-4.750000,-5.750000 -4.250000,-5.750000 -4.250000,-6.250000 -4.750000,-6.250000 " fill="red" />
<polygon points="-4.750000,-4.750000 -4.250000,-4.750000 -4.250000,-5.250000 -4.750000,-5.250000 " fill="red" />
<polygon points="1.250000,-1.750000 1.750000,-1.750000 1.750000,-2.250000 1.250000,-2.250000 " fill="red" />
<polygon points="-4.750000,-7.750000 -4.250000,-7.750000 -4.250000,-8.250000 -4.750000,-8.250000 " fill="red" />
<polygon points="4.250000,-4.750000 4.750000,-4.750000 4.750000,-5.250000 4.250000,-5.250000 " fill="red" />
<polygon points="-1.750000,-1.750000 -1.250000,-1.750000 -1.250000,-2.250000 -1.750000,-2.250000 " fill="red" />
<polygon points="4.250000,-7.750000 4.750000,-7.750000 4.750000,-8.250000 4.250000,-8.250000 " fill="red" />
<polygon points="-1.750000,-10.750000 -1.250000,-10.750000 -1.250000,-11.250000 -1.750000,-11.250000 " fill="red" />
<polygon points="1.250000,-10.750000 1.750000,-10.750000 1.750000,-11.250000 1.250000,-11.250000 " fill="red" />
<polygon points="-3.750000,-2.750000 -3.250000,-2.750000 -3.250000,-3.250000 -3.750000,-3.250000 " fill="red" />
<polygon points="3.250000,-2.750000 3.750000,-2.750000 3.750000,-3.250000 3.250000,-3.250000 " fill="red" />
<polygon points="-3.750000,-9.750000 -3.250000,-9.750000 -3.250000,-10.250000 -3.750000,-10.250000 " fill="red" />
<polygon points="3.250000,-9.750000 3.750000,-9.750000 3.750000,-10.250000 3.250000,-10.250000 " fill="red" />
<polygon points="-2.750000,-1.750000 -2.250000,-1.750000 -2.250000,-2.250000 -2.750000,-2.250000 " fill="red" />
<polygon points="4.250000,-8.750000 4.750000,-8.750000 4.750000,-9.250000 4.250000,-9.250000 " fill="red" />
<polygon points="4.250000,-3.750000 4.750000,-3.750000 4.750000,-4.250000 4.250000,-4.250000 " fill="red" />
<polygon points="-4.750000,-3.750000 -4.250000,-3.750000 -4.250000,-4.250000 -4.750000,-4.250000 " fill="red" />
<polygon points="-4.750000,-8.750000 -4.250000,-8.750000 -4.250000,-9.250000 -4.750000,-9.250000 " fill="red" />
<polygon points="2.250000,-10.750000 2.750000,-10.750000 2.750000,-11.250000 2.250000,-11.250000 " fill="red" />
<polygon points="-2.750000,-10.750000 -2.250000,-10.750000 -2.250000,-11.250000 -2.750000,-11.250000 " fill="red" />
<polygon points="2.250000,-1.750000 2.750000,-1.750000 2.750000,-2.250000 2.250000,-2.250000 " fill="red" />
<polygon points="-5.750000,-6.750000 -5.250000,-6.750000 -5.250000,-7.250000 -5.750000,-7.250000 " fill="red" />
<polygon points="-0.750000,-0.750000 -0.250000,-0.750000 -0.250000,-1.250000 -0.750000,-1.250000 " fill="red" />
<polygon points="0.250000,-0.750000 0.750000,-0.750000 0.750000,-1.250000 0.250000,-1.250000 " fill="red" />
<polygon points="5.250000,-6.750000 5.750000,-6.750000 5.750000,-7.250000 5.250000,-7.250000 " fill="red" />
<polygon points="5.250000,-5.750000 5.750000,-5.750000 5.750000,-6.250000 5.250000,-6.250000 " fill="red" />
<polygon points="-5.750000,-5.750000 -5.250000,-5.750000 -5.250000,-6.250000 -5.750000,-6.250000 " fill="red" />
<polygon points="-0.750000,-11.750000 -0.250000,-11.750000 -0.250000,-12.250000 -0.750000,-12.250000 " fill="red" />
<polygon points="0.250000,-11.750000 0.750000,-11.750000 0.750000,-12.250000 0.250000,-12.250000 " fill="red" />
<polygon points="-5.750000,-4.750000 -5.250000,-4.750000 -5.250000,-5.250000 -5.750000,-5.250000 " fill="red" />
<polygon points="3.250000,-1.750000 3.750000,-1.750000 3.750000,-2.250000 3.250000,-2.250000 " fill="red" />
<polygon points="-5.750000,-7.750000 -5.250000,-7.750000 -5.250000,-8.250000 -5.750000,-8.250000 " fill="red" />
<polygon points="4.250000,-2.750000 4.750000,-2.750000 4.750000,-3.250000 4.250000,-3.250000 " fill="red" />
<polygon points="4.250000,-9.750000 4.750000,-9.750000 4.750000,-10.250000 4.250000,-10.250000 " fill="red" />
<polygon points="5.250000,-4.750000 5.750000,-4.750000 5.750000,-5.250000 5.250000,-5.250000 " fill="red" />
<polygon points="-3.750000,-1.750000 -3.250000,-1.750000 -3.250000,-2.250000 -3.750000,-2.250000 " fill="red" />
<polygon points="-4.750000,-9.750000 -4.250000,-9.750000 -4.250000,-10.250000 -4.750000,-10.250000 " fill="red" />
<polygon points="-1.750000,-0.750000 -1.250000,-0.750000 -1.250000,-1.250000 -1.750000,-1.250000 " fill="red" />
<polygon points="5.250000,-7.750000 5.750000,-7.750000 5.750000,-8.250000 5.250000,-8.250000 " fill="red" />
<polygon points="-3.750000,-10.750000 -3.250000,-10.750000 -3.250000,-11.250000 -3.750000,-11.250000 " fill="red" />
<polygon points="3.250000,-10.750000 3.750000,-10.750000 3.750000,-11.250000 3.250000,-11.250000 " fill="red" />
<polygon points="-1.750000,-11.750000 -1.250000,-11.750000 -1.250000,-12.250000 -1.750000,-12.250000 " fill="red" />
<polygon points="1.250000,-0.750000 1.750000,-0.750000 1.750000,-1.250000 1.250000,-1.250000 " fill="red" />
<polygon points="-4.750000,-2.750000 -4.250000,-2.750000 -4.250000,-3.250000 -4.750000,-3.250000 " fill="red" />
<polygon points="1.250000,-11.750000 1.750000,-11.750000 1.750000,-12.250000 1.250000,-12.250000 " fill="red" />
<polygon points="-2.750000,-0.750000 -2.250000,-0.750000 -2.250000,-1.250000 -2.750000,-1.250000 " fill="red" />
<polygon points="2.250000,-0.750000 2.750000,-0.750000 2.750000,-1.250000 2.250000,-1.250000 " fill="red" />
<polygon points="-2.750000,-11.750000 -2.250000,-11.750000 -2.250000,-12.250000 -2.750000,-12.250000 " fill="red" />
<polygon points="5.250000,-3.750000 5.750000,-3.750000 5.750000,-4.250000 5.250000,-4.250000 " fill="red" />
<polygon points="5.250000,-8.750000 5.750000,-8.750000 5.750000,-9.250000 5.250000,-9.250000 " fill="red" />
<polygon points="-5.750000,-8.750000 -5.250000,-8.750000 -5.250000,-9.250000 -5.750000,-9.250000 " fill="red" />
<polygon points="-5.750000,-3.750000 -5.250000,-3.750000 -5.250000,-4.250000 -5.750000,-4.250000 " fill="red" />
<polygon points="2.250000,-11.750000 2.750000,-11.750000 2.750000,-12.250000 2.250000,-12.250000 " fill="red" />
<polygon points="-4.750000,-10.750000 -4.250000,-10.750000 -4.250000,-11.250000 -4.750000,-11.250000 " fill="red" />
<polygon points="4.250000,-10.750000 4.750000,-10.750000 4.750000,-11.250000 4.250000,-11.250000 " fill="red" />
<polygon points="4.250000,-1.750000 4.750000,-1.750000 4.750000,-2.250000 4.250000,-2.250000 " fill="red" />
<polygon points="-4.750000,-1.750000 -4.250000,-1.750000 -4.250000,-2.250000 -4.750000,-2.250000 " fill="red" />
<polygon points="3.250000,-0.750000 3.750000,-0.750000 3.750000,-1.250000 3.250000,-1.250000 " fill="red" />
<polygon points="-3.750000,-0.750000 -3.250000,-0.750000 -3.250000,-1.250000 -3.750000,-1.250000 " fill="red" />
<polygon points="-5.750000,-9.750000 -5.250000,-9.750000 -5.250000,-10.250000 -5.750000,-10.250000 " fill="red" />
<polygon points="5.250000,-2.750000 5.750000,-2.750000 5.750000,-3.250000 5.250000,-3.250000 " fill="red" />
<polygon points="-5.750000,-2.750000 -5.250000,-2.750000 -5.250000,-3.250000 -5.750000,-3.250000 " fill="red" />
<polygon points="-3.750000,-11.750000 -3.250000,-11.750000 -3.250000,-12.250000 -3.750000,-12.250000 " fill="red" />
<polygon points="5.250000,-9.750000 5.750000,-9.750000 5.750000,-10.250000 5.250000,-10.250000 " fill="red" />
<polygon points="3.250000,-11.750000 3.750000,-11.750000 3.750000,-12.250000 3.250000,-12.250000 " fill="red" />
<polygon points="-5.750000,-10.750000 -5.250000,-10.750000 -5.250000,-11.250000 -5.750000,-11.250000 " fill="red" />
<polygon points="-4.750000,-0.750000 -4.250000,-0.750000 -4.250000,-1.250000 -4.750000,-1.250000 " fill="red" />
<polygon points="5.250000,-1.750000 5.750000,-1.750000 5.750000,-2.250000 5.250000,-2.250000 " fill="red" />
<polygon points="5.250000,-10.750000 5.750000,-10.750000 5.750000,-11.250000 5.250000,-11.250000 " fill="red" />
<polygon points="-4.750000,-11.750000 -4.250000,-11.750000 -4.250000,-12.250000 -4.750000,-12.250000 " fill="red" />
<polygon points="-5.750000,-1.750000 -5.250000,-1.750000 -5.250000,-2.250000 -5.750000,-2.250000 " fill="red" />
<polygon points="4.250000,-0.750000 4.750000,-0.750000 4.750000,-1.250000 4.250000,-1.250000 " fill="red" />
<polygon points="4.250000,-11.750000 4.750000,-11.750000 4.750000,-12.250000 4.250000,-12.250000 " fill="red" />
<polygon points="-5.750000,-0.750000 -5.250000,-0.750000 -5.250000,-1.250000 -5.750000,-1.250000 " fill="red" />
<polygon points="-5.750000,-11.750000 -5.250000,-11.750000 -5.250000,-12.250000 -5.750000,-12.250000 " fill="red" />
<polygon points="5.250000,-0.750000 5.750000,-0.750000 5.750000,-1.250000 5.250000,-1.250000 " fill="red" />
<polygon points="5.250000,-11.750000 5.750000,-11.750000 5.750000,-12.250000 5.250000,-12.250000 " fill="red" />
  <line x1="-3.500000" y1="-3.000000" x2="-3.500000" y2="-5.000000" stroke="black"   stroke-width="0.1"/>  <line x1="-3.500000" y1="-5.000000" x2="-4.500000" y2="-4.000000" stroke="black"   stroke-width="0.1"/>  <line x1="-3.500000" y1="-5.000000" x2="-2.500000" y2="-4.000000" stroke="black"   stroke-width="0.1"/>
</svg>