<svg viewBox="-4.500000 -4.500000 5.500000 5.500000" xmlns="http://www.w3.org/2000/svg">
<polygon points="0.250000,-3.750000 0.750000,-3.750000 0.750000,-4.250000 0.250000,-4.250000 " fill="red" />
<polygon points="0.250000,-4.750000 0.750000,-4.750000 0.750000,-5.250000 0.250000,-5.250000 " fill="red" />
<polygon points="1.250000,-3.750000 1.750000,-3.750000 1.750000,-4.250000 1.250000,-4.250000 " fill="red" />
<polygon points="-0.750000,-3.750000 -0.250000,-3.750000 -0.250000,-4.250000 -0.750000,-4.250000 " fill="red" />
<polygon points="0.250000,-2.750000 0.750000,-2.750000 0.750000,-3.250000 0.250000,-3.250000 " fill="red" />
<polygon points="1.250000,-4.750000 1.750000,-4.750000 1.750000,-5.250000 1.250000,-5.250000 " fill="red" />
<polygon points="-0.750000,-4.750000 -0.250000,-4.750000 -0.250000,-5.250000 -0.750000,-5.250000 " fill="red" />
<polygon points="-0.750000,-2.750000 -0.250000,-2.750000 -0.250000,-3.250000 -0.750000,-3.250000 " fill="red" />
<polygon points="1.250000,-2.750000 1.750000,-2.750000 1.750000,-3.250000 1.250000,-3.250000 " fill="red" />
<polygon points="-1.750000,-3.750000 -1.250000,-3.750000 -1.250000,-4.250000 -1.750000,-4.250000 " fill="red" />
<polygon points="2.250000,-3.750000 2.750000,-3.750000 2.750000,-4.250000 2.250000,-4.250000 " fill="red" />
<polygon points="0.250000,-1.750000 0.750000,-1.750000 0.750000,-2.250000 0.250000,-2.250000 " fill="red" />
<polygon points="0.250000,-5.750000 0.750000,-5.750000 0.750000,-6.250000 0.250000,-6.250000 " fill="red" />
<polygon points="-1.750000,-4.750000 -1.250000,-4.750000 -1.250000,-5.250000 -1.750000,-5.250000 " fill="red" />
<polygon points="-0.750000,-5.750000 -0.250000,-5.750000 -0.250000,-6.250000 -0.750000,-6.250000 " fill="red" />
<polygon points="2.250000,-4.750000 2.750000,-4.750000 2.750000,-5.250000 2.250000,-5.250000 " fill="red" />
<polygon points="-1.750000,-2.750000 -1.250000,-2.750000 -1.250000,-3.250000 -1.750000,-3.250000 " fill="red" />
<polygon points="2.250000,-2.750000 2.750000,-2.750000 2.750000,-3.250000 2.250000,-3.250000 " fill="red" />
<polygon points="-0.750000,-1.750000 -0.250000,-1.750000 -0.250000,-2.250000 -0.750000,-2.250000 " fill="red" />
<polygon points="1.250000,-1.750000 1.750000,-1.750000 1.750000,-2.250000 1.250000,-2.250000 " fill="red" />
<polygon points="1.250000,-5.750000 1.750000,-5.750000 1.750000,-6.250000 1.250000,-6.250000 " fill="red" />
<polygon points="-1.750000,-5.750000 -1.250000,-5.750000 -1.250000,-6.250000 -1.750000,-6.250000 " fill="red" />
<polygon points="-1.750000,-1.750000 -1.250000,-1.750000 -1.250000,-2.250000 -1.750000,-2.250000 " fill="red" />
<polygon points="2.250000,-1.750000 2.750000,-1.750000 2.750000,-2.250000 2.250000,-2.250000 " fill="red" />
<polygon points="2.250000,-5.750000 2.750000,-5.750000 2.750000,-6.250000 2.250000,-6.250000 " fill="red" />
<polygon points="-2.750000,-3.750000 -2.250000,-3.750000 -2.250000,-4.250000 -2.750000,-4.250000 " fill="red" />
<polygon points="0.250000,-0.750000 0.750000,-0.750000 0.750000,-1.250000 0.250000,-1.250000 " fill="red" />
<polygon points="3.250000,-3.750000 3.750000,-3.750000 3.750000,-4.250000 3.250000,-4.250000 " fill="red" />
<polygon points="0.250000,-6.750000 0.750000,-6.750000 0.750000,-7.250000 0.250000,-7.250000 " fill="red" />
<polygon points="3.250000,-2.750000 3.750000,-2.750000 3.750000,-3.250000 3.250000,-3.250000 " fill="red" />
<polygon points="3.250000,-4.750000 3.750000,-4.750000 3.750000,-5.250000 3.250000,-5.250000 " fill="red" />
<polygon points="-2.750000,-4.750000 -2.250000,-4.750000 -2.250000,-5.250000 -2.750000,-5.250000 " fill="red" />
<polygon points="-0.750000,-0.750000 -0.250000,-0.750000 -0.250000,-1.250000 -0.750000,-1.250000 " fill="red" />
<polygon points="1.250000,-0.750000 1.750000,-0.750000 1.750000,-1.250000 1.250000,-1.250000 " fill="red" />
<polygon points="-0.750000,-6.750000 -0.250000,-6.750000 -0.250000,-7.250000 -0.750000,-7.250000 " fill="red" />
<polygon points="-2.750000,-2.750000 -2.250000,-2.750000 -2.250000,-3.250000 -2.750000,-3.250000 " fill="red" />
<polygon points="1.250000,-6.750000 1.750000,-6.750000 1.750000,-7.250000 1.250000,-7.250000 " fill="red" />
<polygon points="-1.750000,-0.750000 -1.250000,-0.750000 -1.250000,-1.250000 -1.750000,-1.250000 " fill="red" />
<polygon points="3.250000,-1.750000 3.750000,-1.750000 3.750000,-2.250000 3.250000,-2.250000 " fill="red" />
<polygon points="-2.750000,-5.750000 -2.250000,-5.750000 -2.250000,-6.250000 -2.750000,-6.250000 " fill="red" />
<polygon points="-2.750000,-1.750000 -2.250000,-1.750000 -2.250000,-2.250000 -2.750000,-2.250000 " fill="red" />
<polygon points="2.250000,-0.750000 2.750000,-0.750000 2.750000,-1.250000 2.250000,-1.250000 " fill="red" />
<polygon points="3.250000,-5.750000 3.750000,-5.750000 3.750000,-6.250000 3.250000,-6.250000 " fill="red" />
<polygon points="-1.750000,-6.750000 -1.250000,-6.750000 -1.250000,-7.250000 -1.750000,-7.250000 " fill="red" />
<polygon points="2.250000,-6.750000 2.750000,-6.750000 2.750000,-7.250000 2.250000,-7.250000 " fill="red" />
<polygon points="0.250000,0.250000 0.750000,0.250000 0.750000,-0.250000 0.250000,-0.250000 " fill="red" />
<polygon points="4.250000,-3.750000 4.750000,-3.750000 4.750000,-4.250000 4.250000,-4.250000 " fill="red" />
<polygon points="-3.750000,-3.750000 -3.250000,-3.750000 -3.250000,-4.250000 -3.750000,-4.250000 " fill="red" />
<polygon points="0.250000,-7.750000 0.750000,-7.750000 0.750000,-8.250000 0.250000,-8.250000 " fill="red" />
<polygon points="-3.750000,-4.750000 -3.250000,-4.750000 -3.250000,-5.250000 -3.750000,-5.250000 " fill="red" />
<polygon points="1.250000,0.250000 1.750000,0.250000 1.750000,-0.250000 1.250000,-0.250000 " fill="red" />
<polygon points="4.250000,-4.750000 4.750000,-4.750000 4.750000,-5.250000 4.250000,-5.250000 " fill="red" />
<polygon points="-0.750000,0.250000 -0.250000,0.250000 -0.250000,-0.250000 -0.750000,-0.250000 " fill="red" />
<polygon points="-3.750000,-2.750000 -3.250000,-2.750000 -3.250000,-3.250000 -3.750000,-3.250000 " fill="red" />
<polygon points="4.250000,-2.750000 4.750000,-2.750000 4.750000,-3.250000 4.250000,-3.250000 " fill="red" />
<polygon points="-0.750000,-7.750000 -0.250000,-7.750000 -0.250000,-8.250000 -0.750000,-8.250000 " fill="red" />
<polygon points="1.250000,-7.750000 1.750000,-7.750000 1.750000,-8.250000 1.250000,-8.250000 " fill="red" />
<polygon points="3.250000,-6.750000 3.750000,-6.750000 3.750000,-7.250000 3.250000,-7.250000 " fill="red" />
<polygon points="-2.750000,-6.750000 -2.250000,-6.750000 -2.250000,-7.250000 -2.750000,-7.250000 " fill="red" />
<polygon points="3.250000,-0.750000 3.750000,-0.750000 3.750000,-1.250000 3.250000,-1.250000 " fill="red" />
<polygon points="-2.750000,-0.750000 -2.250000,-0.750000 -2.250000,-1.250000 -2.750000,-1.250000 " fill="red" />
<polygon points="4.250000,-5.750000 4.750000,-5.750000 4.750000,-6.250000 4.250000,-6.250000 " fill="red" />
<polygon points="4.250000,-1.750000 4.750000,-1.750000 4.750000,-2.250000 4.250000,-2.250000 " fill="red" />
<polygon points="-3.750000,-1.750000 -3.250000,-1.750000 -3.250000,-2.250000 -3.750000,-2.250000 " fill="red" />
<polygon points="-3.750000,-5.750000 -3.250000,-5.750000 -3.250000,-6.250000 -3.750000,-6.250000 " fill="red" />
<polygon points="-1.750000,-7.750000 -1.250000,-7.750000 -1.250000,-8.250000 -1.750000,-8.250000 " fill="red" />
<polygon points="2.250000,0.250000 2.750000,0.250000 2.750000,-0.250000 2.250000,-0.250000 " fill="red" />
<polygon points="-1.750000,0.250000 -1.250000,0.250000 -1.250000,-0.250000 -1.750000,-0.250000 " fill="red" />
<polygon points="2.250000,-7.750000 2.750000,-7.750000 2.750000,-8.250000 2.250000,-8.250000 " fill="red" />
<polygon points="-2.750000,0.250000 -2.250000,0.250000 -2.250000,-0.250000 -2.750000,-0.250000 " fill="red" />
<polygon points="-3.750000,-6.750000 -3.250000,-6.750000 -3.250000,-7.250000 -3.750000,-7.250000 " fill="red" />
<polygon points="4.250000,-0.750000 4.750000,-0.750000 4.750000,-1.250000 4.250000,-1.250000 " fill="red" />
<polygon points="-3.750000,-0.750000 -3.250000,-0.750000 -3.250000,-1.250000 -3.750000,-1.250000 " fill="red" />
<polygon points="4.250000,-6.750000 4.750000,-6.750000 4.750000,-7.250000 4.250000,-7.250000 " fill="red" />
<polygon points="-2.750000,-7.750000 -2.250000,-7.750000 -2.250000,-8.250000 -2.750000,-8.250000 " fill="red" />
<polygon points="3.250000,0.250000 3.750000,0.250000 3.750000,-0.250000 3.250000,-0.250000 " fill="red" />
<polygon points="3.250000,-7.750000 3.750000,-7.750000 3.750000,-8.250000 3.250000,-8.250000 " fill="red" />
<polygon points="-3.750000,0.250000 -3.250000,0.250000 -3.250000,-0.250000 -3.750000,-0.250000 " fill="red" />
<polygon points="4.250000,0.250000 4.750000,0.250000 4.750000,-0.250000 4.250000,-0.250000 " fill="red" />
  <line x1="-1.500000" y1="-2.000000" x2="-1.500000" y2="-4.000000" stroke="black"   stroke-width="0.1"/>  <line x1="-1.500000" y1="-4.000000" x2="-2.500000" y2="-3.000000" stroke="black"   stroke-width="0.1"/>  <line x1="-1.500000" y1="-4.000000" x2="-0.500000" y2="-3.000000" stroke="black"   stroke-width="0.1"/>
</svg>